<?xml version="1.0" standalone="no"?>
<!DOCTYPE svg PUBLIC "-//W3C//DTD SVG 20010904//EN"
 "http://www.w3.org/TR/2001/REC-SVG-20010904/DTD/svg10.dtd">
<svg version="1.0" xmlns="http://www.w3.org/2000/svg"
 width="512.000000pt" height="512.000000pt" viewBox="0 0 512.000000 512.000000"
 preserveAspectRatio="xMidYMid meet">

<g transform="translate(0.000000,512.000000) scale(0.100000,-0.100000)"
fill="#000000" stroke="none">
<path d="M2411 4939 c-376 -29 -721 -195 -943 -454 -139 -163 -244 -357 -282
-520 -32 -137 -39 -254 -32 -539 3 -155 10 -317 15 -361 6 -58 6 -82 -3 -87
-28 -19 -124 -7 -221 27 -117 41 -187 45 -267 15 -170 -63 -220 -229 -105
-348 52 -54 139 -101 283 -152 152 -55 210 -85 249 -132 39 -46 32 -107 -23
-216 -208 -407 -544 -700 -895 -779 -102 -23 -135 -39 -157 -76 -33 -54 -35
-93 -9 -149 54 -116 207 -192 519 -257 78 -16 146 -34 150 -41 4 -6 19 -64 34
-129 22 -95 32 -123 54 -144 57 -54 94 -57 282 -22 160 30 247 31 381 5 129
-25 187 -52 379 -180 178 -119 263 -161 375 -190 164 -42 468 -44 660 -5 181
37 309 93 520 226 82 51 174 103 206 116 116 47 316 56 514 23 153 -25 181
-25 230 3 49 28 65 61 95 195 20 86 27 103 44 107 12 2 59 11 106 20 271 51
436 124 510 226 41 57 47 96 22 152 -24 55 -52 74 -134 93 -279 64 -510 211
-697 444 -163 203 -271 406 -271 511 0 42 4 50 40 82 49 45 91 66 210 107 221
74 339 167 364 287 19 84 -59 192 -167 232 -86 32 -145 28 -281 -20 -128 -44
-202 -50 -200 -17 1 10 7 147 14 305 19 458 -4 660 -100 860 -68 144 -159 273
-270 383 -241 241 -538 371 -911 400 -74 5 -145 9 -159 9 -14 -1 -72 -5 -129
-10z m517 -205 c363 -88 642 -308 798 -629 78 -160 95 -319 82 -741 -15 -494
-16 -449 11 -478 45 -48 107 -70 201 -70 73 0 101 6 193 38 122 43 158 43 208
-2 l31 -27 -21 -26 c-27 -35 -114 -79 -256 -132 -154 -57 -197 -79 -254 -132
-72 -67 -96 -123 -95 -220 0 -68 6 -92 36 -165 195 -463 595 -833 1005 -930
29 -6 51 -15 48 -20 -9 -14 -113 -59 -196 -84 -46 -14 -146 -37 -222 -52 -91
-18 -147 -34 -164 -47 -32 -25 -54 -77 -83 -194 -26 -109 -9 -103 -197 -72
-105 17 -152 20 -263 15 -226 -10 -295 -35 -544 -201 -168 -111 -254 -152
-393 -187 -77 -20 -114 -23 -303 -23 -175 0 -227 3 -280 18 -101 27 -212 85
-365 189 -263 179 -329 201 -595 202 -148 1 -191 -3 -278 -22 -57 -13 -106
-21 -108 -19 -3 3 -18 55 -34 116 -31 119 -41 144 -73 178 -20 23 -27 25 -249
68 -132 26 -268 70 -328 106 l-35 21 100 30 c326 96 600 313 833 660 65 97
133 228 156 302 27 84 19 197 -18 260 -51 88 -173 163 -333 207 -121 33 -253
109 -253 145 0 18 41 44 87 55 32 7 50 3 108 -20 146 -60 279 -66 380 -16 86
42 89 51 81 218 -40 782 -22 917 160 1193 164 250 415 420 733 495 180 43 498
40 689 -7z"/>
</g>
</svg>
